# FreeCAD v1.0 build1 Arch module
# https://www.freecad.org
mtllib CAD.mtl
o (Unsaved) (Meshed)004
usemtl color_cccccc
v 6.3 7.0 5.15
v 6.3 4.55 1.0
v 6.3 4.55 5.15
v 6.3 7.0 1.0
v 6.875 7.0 5.366507
v 6.75 7.0 5.4
v 6.814705 7.0 5.391481
v 6.991481 7.0 5.214705
v 7.0 7.0 5.15
v 6.966506 7.0 5.275
v 6.926777 7.0 5.326777
v 6.485295 7.0 5.391481
v 6.373223 7.0 5.326777
v 6.425 7.0 5.366507
v 6.55 7.0 5.4
v 6.308518 7.0 5.214705
v 6.333494 7.0 5.275
v 7.0 7.0 1.0
v 6.485295 4.55 5.391481
v 6.55 4.55 5.4
v 6.425 4.55 5.366507
v 6.373223 4.55 5.326777
v 6.333494 4.55 5.275
v 6.308518 4.55 5.214705
v 7.0 4.55 1.0
v 6.75 4.55 5.4
v 6.875 4.55 5.366507
v 6.814705 4.55 5.391481
v 6.926777 4.55 5.326777
v 6.991481 4.55 5.214705
v 6.966506 4.55 5.275
v 7.0 4.55 5.15
v 6.3 3.15 5.15
v 6.3 0.7 1.0
v 6.3 0.7 5.15
v 6.3 3.15 1.0
v 6.875 3.15 5.366507
v 6.75 3.15 5.4
v 6.814705 3.15 5.391481
v 6.991481 3.15 5.214705
v 7.0 3.15 5.15
v 6.966506 3.15 5.275
v 6.926777 3.15 5.326777
v 6.485295 3.15 5.391481
v 6.373223 3.15 5.326777
v 6.425 3.15 5.366507
v 6.55 3.15 5.4
v 6.308518 3.15 5.214705
v 6.333494 3.15 5.275
v 7.0 3.15 1.0
v 6.485295 0.7 5.391481
v 6.55 0.7 5.4
v 6.425 0.7 5.366507
v 6.373223 0.7 5.326777
v 6.333494 0.7 5.275
v 6.308518 0.7 5.214705
v 7.0 0.7 1.0
v 6.75 0.7 5.4
v 6.875 0.7 5.366507
v 6.814705 0.7 5.391481
v 6.926777 0.7 5.326777
v 6.991481 0.7 5.214705
v 6.966506 0.7 5.275
v 7.0 0.7 5.15
v 0.175 7.0 5.366507
v 0.05 7.0 5.4
v 0.114705 7.0 5.391481
v 0.291481 7.0 5.214705
v 0.3 7.0 5.15
v 0.266506 7.0 5.275
v 0.226777 7.0 5.326777
v 0.3 7.0 1.0
v 0.3 4.55 1.0
v 0.05 4.55 5.4
v 0.175 4.55 5.366507
v 0.114705 4.55 5.391481
v 0.3 4.55 5.15
v 0.266506 4.55 5.275
v 0.291481 4.55 5.214705
v 0.226777 4.55 5.326777
v 0.175 3.15 5.366507
v 0.05 3.15 5.4
v 0.114705 3.15 5.391481
v 0.291481 3.15 5.214705
v 0.3 3.15 5.15
v 0.266506 3.15 5.275
v 0.226777 3.15 5.326777
v 0.3 3.15 1.0
v 0.3 0.7 1.0
v 0.05 0.7 5.4
v 0.175 0.7 5.366507
v 0.114705 0.7 5.391481
v 0.3 0.7 5.15
v 0.266506 0.7 5.275
v 0.291481 0.7 5.214705
v 0.226777 0.7 5.326777
v 1.9 7.0 5.15
v 1.9 4.55 1.0
v 1.9 4.55 5.15
v 1.9 7.0 1.0
v 2.375 7.0 5.366507
v 2.25 7.0 5.4
v 2.314705 7.0 5.391481
v 2.491482 7.0 5.214705
v 2.5 7.0 5.15
v 2.466506 7.0 5.275
v 2.426777 7.0 5.326777
v 2.15 7.0 5.4
v 2.025 7.0 5.366507
v 2.085295 7.0 5.391481
v 1.973223 7.0 5.326777
v 1.908519 7.0 5.214705
v 1.933494 7.0 5.275
v 2.5 7.0 1.0
v 2.085295 4.55 5.391481
v 2.15 4.55 5.4
v 2.025 4.55 5.366507
v 1.973223 4.55 5.326777
v 1.933494 4.55 5.275
v 1.908519 4.55 5.214705
v 2.5 4.55 1.0
v 2.25 4.55 5.4
v 2.375 4.55 5.366507
v 2.314705 4.55 5.391481
v 2.5 4.55 5.15
v 2.466506 4.55 5.275
v 2.491482 4.55 5.214705
v 2.426777 4.55 5.326777
v 1.9 3.15 5.15
v 1.9 0.7 1.0
v 1.9 0.7 5.15
v 1.9 3.15 1.0
v 2.375 3.15 5.366507
v 2.25 3.15 5.4
v 2.314705 3.15 5.391481
v 2.491482 3.15 5.214705
v 2.5 3.15 5.15
v 2.466506 3.15 5.275
v 2.426777 3.15 5.326777
v 2.15 3.15 5.4
v 2.025 3.15 5.366507
v 2.085295 3.15 5.391481
v 1.973223 3.15 5.326777
v 1.908519 3.15 5.214705
v 1.933494 3.15 5.275
v 2.5 3.15 1.0
v 2.085295 0.7 5.391481
v 2.15 0.7 5.4
v 2.025 0.7 5.366507
v 1.973223 0.7 5.326777
v 1.933494 0.7 5.275
v 1.908519 0.7 5.214705
v 2.5 0.7 1.0
v 2.25 0.7 5.4
v 2.375 0.7 5.366507
v 2.314705 0.7 5.391481
v 2.5 0.7 5.15
v 2.466506 0.7 5.275
v 2.491482 0.7 5.214705
v 2.426777 0.7 5.326777
v 4.1 7.0 5.15
v 4.1 4.55 1.0
v 4.1 4.55 5.15
v 4.1 7.0 1.0
v 4.575 7.0 5.366507
v 4.45 7.0 5.4
v 4.514705 7.0 5.391481
v 4.691482 7.0 5.214705
v 4.7 7.0 5.15
v 4.666506 7.0 5.275
v 4.626777 7.0 5.326777
v 4.35 7.0 5.4
v 4.225 7.0 5.366507
v 4.285295 7.0 5.391481
v 4.173223 7.0 5.326777
v 4.108519 7.0 5.214705
v 4.133493 7.0 5.275
v 4.7 7.0 1.0
v 4.285295 4.55 5.391481
v 4.35 4.55 5.4
v 4.225 4.55 5.366507
v 4.173223 4.55 5.326777
v 4.133493 4.55 5.275
v 4.108519 4.55 5.214705
v 4.7 4.55 1.0
v 4.45 4.55 5.4
v 4.575 4.55 5.366507
v 4.514705 4.55 5.391481
v 4.7 4.55 5.15
v 4.666506 4.55 5.275
v 4.691482 4.55 5.214705
v 4.626777 4.55 5.326777
v 4.1 3.15 5.15
v 4.1 0.7 1.0
v 4.1 0.7 5.15
v 4.1 3.15 1.0
v 4.575 3.15 5.366507
v 4.45 3.15 5.4
v 4.514705 3.15 5.391481
v 4.691482 3.15 5.214705
v 4.7 3.15 5.15
v 4.666506 3.15 5.275
v 4.626777 3.15 5.326777
v 4.35 3.15 5.4
v 4.225 3.15 5.366507
v 4.285295 3.15 5.391481
v 4.173223 3.15 5.326777
v 4.108519 3.15 5.214705
v 4.133493 3.15 5.275
v 4.7 3.15 1.0
v 4.285295 0.7 5.391481
v 4.35 0.7 5.4
v 4.225 0.7 5.366507
v 4.173223 0.7 5.326777
v 4.133493 0.7 5.275
v 4.108519 0.7 5.214705
v 4.7 0.7 1.0
v 4.45 0.7 5.4
v 4.575 0.7 5.366507
v 4.514705 0.7 5.391481
v 4.7 0.7 5.15
v 4.666506 0.7 5.275
v 4.691482 0.7 5.214705
v 4.626777 0.7 5.326777
v 7.0 7.0 0.0
v 7.0 7.0 1.0
v 7.0 0.0 0.5
v 7.0 0.0 1.0
v 7.0 0.0 0.0
v 0.05 7.0 5.4
v 0.0 7.0 5.364286
v 0.0 7.0 5.4
v 0.3 7.0 5.15
v 0.0 7.0 5.15
v 0.3 7.0 1.0
v 0.0 7.0 3.075
v 0.0 7.0 1.0
v 0.3 4.55 1.0
v 0.0 5.775 1.0
v 0.0 4.55 1.0
v 0.3 4.55 5.15
v 0.05 4.55 5.4
v 0.0 4.55 5.364286
v 0.0 4.55 5.4
v 0.0 4.55 5.15
v 0.0 4.55 3.075
v 0.0 5.775 5.4
v 0.05 3.15 5.4
v 0.0 3.15 5.364286
v 0.0 3.15 5.4
v 0.3 3.15 5.15
v 0.0 3.15 5.15
v 0.3 3.15 1.0
v 0.0 3.15 3.075
v 0.0 3.15 1.0
v 0.3 0.7 1.0
v 0.0 1.925 1.0
v 0.0 0.7 1.0
v 0.3 0.7 5.15
v 0.05 0.7 5.4
v 0.0 0.7 5.364286
v 0.0 0.7 5.4
v 0.0 0.7 5.15
v 0.0 0.7 3.075
v 0.0 1.925 5.4
v 7.0 7.0 1.0
v 0.0 7.0 0.5
v 7.0 7.0 0.0
v 0.0 7.0 0.0
v 0.0 0.0 0.0
v 7.0 0.0 0.0
v 7.0 0.0 1.0
v 0.0 3.5 1.0
v 0.0 0.0 1.0
vn -1.0 -0.0 0.0
vn -1.0 0.0 0.0
vn 0.0 1.0 0.0
vn 0.0 1.0 0.0
vn 0.0 1.0 0.0
vn 0.0 1.0 0.0
vn 0.0 1.0 0.0
vn 0.0 1.0 0.0
vn 0.0 1.0 0.0
vn 0.0 1.0 0.0
vn 0.0 1.0 0.0
vn 0.0 1.0 0.0
vn 0.0 1.0 0.0
vn 0.0 1.0 0.0
vn 0.0 1.0 -0.0
vn 0.0 1.0 0.0
vn -0.130528 0.0 0.991445
vn -0.130528 0.0 0.991445
vn -0.38268 0.0 0.923881
vn -0.38268 0.0 0.923881
vn -0.608764 0.0 0.793351
vn -0.608764 0.0 0.793351
vn -0.793352 0.0 0.608763
vn -0.793352 0.0 0.608763
vn -0.923878 0.0 0.382687
vn -0.923878 0.0 0.382687
vn -0.991446 0.0 0.130521
vn -0.991446 0.0 0.130521
vn 0.0 0.0 -1.0
vn 0.0 0.0 -1.0
vn 0.0 -1.0 0.0
vn 0.0 -1.0 -0.0
vn 0.0 -1.0 -0.0
vn 0.0 -1.0 -0.0
vn 0.0 -1.0 -0.0
vn 0.0 -1.0 0.0
vn 0.0 -1.0 0.0
vn 0.0 -1.0 0.0
vn 0.0 -1.0 0.0
vn 0.0 -1.0 0.0
vn 0.0 -1.0 0.0
vn 0.0 -1.0 0.0
vn 0.0 -1.0 0.0
vn 0.0 -1.0 0.0
vn 1.0 -0.0 0.0
vn 1.0 0.0 0.0
vn 0.130528 0.0 0.991445
vn 0.130528 0.0 0.991445
vn 0.38268 0.0 0.923881
vn 0.38268 0.0 0.923881
vn 0.608764 0.0 0.793351
vn 0.608764 0.0 0.793351
vn 0.793352 0.0 0.608763
vn 0.793352 0.0 0.608763
vn 0.923881 0.0 0.38268
vn 0.923881 0.0 0.38268
vn 0.991445 0.0 0.130528
vn 0.991445 0.0 0.130528
vn 0.0 0.0 1.0
vn 0.0 0.0 1.0
vn -1.0 -0.0 0.0
vn -1.0 0.0 0.0
vn 0.0 1.0 0.0
vn 0.0 1.0 0.0
vn 0.0 1.0 0.0
vn 0.0 1.0 0.0
vn 0.0 1.0 0.0
vn 0.0 1.0 0.0
vn 0.0 1.0 0.0
vn 0.0 1.0 0.0
vn 0.0 1.0 0.0
vn 0.0 1.0 0.0
vn 0.0 1.0 0.0
vn 0.0 1.0 0.0
vn 0.0 1.0 -0.0
vn 0.0 1.0 0.0
vn -0.130528 0.0 0.991445
vn -0.130528 0.0 0.991445
vn -0.38268 0.0 0.923881
vn -0.38268 0.0 0.923881
vn -0.608764 0.0 0.793351
vn -0.608764 0.0 0.793351
vn -0.793352 0.0 0.608763
vn -0.793352 0.0 0.608763
vn -0.923878 0.0 0.382687
vn -0.923878 0.0 0.382687
vn -0.991445 0.0 0.130521
vn -0.991445 0.0 0.130521
vn 0.0 0.0 -1.0
vn 0.0 0.0 -1.0
vn 0.0 -1.0 0.0
vn 0.0 -1.0 -0.0
vn 0.0 -1.0 -0.0
vn 0.0 -1.0 -0.0
vn 0.0 -1.0 -0.0
vn 0.0 -1.0 0.0
vn 0.0 -1.0 0.0
vn 0.0 -1.0 0.0
vn 0.0 -1.0 0.0
vn 0.0 -1.0 0.0
vn 0.0 -1.0 0.0
vn 0.0 -1.0 0.0
vn 0.0 -1.0 0.0
vn 0.0 -1.0 0.0
vn 1.0 -0.0 0.0
vn 1.0 0.0 0.0
vn 0.130528 0.0 0.991445
vn 0.130528 0.0 0.991445
vn 0.38268 0.0 0.923881
vn 0.38268 0.0 0.923881
vn 0.608764 0.0 0.793351
vn 0.608764 0.0 0.793351
vn 0.793352 0.0 0.608763
vn 0.793352 0.0 0.608763
vn 0.923881 0.0 0.38268
vn 0.923881 0.0 0.38268
vn 0.991445 0.0 0.130528
vn 0.991445 0.0 0.130528
vn 0.0 0.0 1.0
vn 0.0 0.0 1.0
vn 0.0 1.0 0.0
vn 0.0 1.0 0.0
vn 0.0 1.0 0.0
vn 0.0 1.0 0.0
vn 0.0 1.0 0.0
vn 0.0 -1.0 0.0
vn 0.0 -1.0 0.0
vn 0.0 -1.0 0.0
vn 0.0 -1.0 0.0
vn 0.0 -1.0 0.0
vn 1.0 -0.0 0.0
vn 1.0 0.0 0.0
vn 0.130528 0.0 0.991445
vn 0.130528 0.0 0.991445
vn 0.38268 0.0 0.923881
vn 0.38268 0.0 0.923881
vn 0.608765 0.0 0.79335
vn 0.608765 0.0 0.79335
vn 0.793352 0.0 0.608764
vn 0.793352 0.0 0.608764
vn 0.923879 0.0 0.382684
vn 0.923879 0.0 0.382684
vn 0.991445 0.0 0.130526
vn 0.991445 0.0 0.130526
vn 0.0 1.0 0.0
vn 0.0 1.0 0.0
vn 0.0 1.0 0.0
vn 0.0 1.0 0.0
vn 0.0 1.0 0.0
vn 0.0 -1.0 0.0
vn 0.0 -1.0 0.0
vn 0.0 -1.0 0.0
vn 0.0 -1.0 0.0
vn 0.0 -1.0 0.0
vn 1.0 -0.0 0.0
vn 1.0 0.0 0.0
vn 0.130528 0.0 0.991445
vn 0.130528 0.0 0.991445
vn 0.38268 0.0 0.923881
vn 0.38268 0.0 0.923881
vn 0.608765 0.0 0.79335
vn 0.608765 0.0 0.79335
vn 0.793352 0.0 0.608764
vn 0.793352 0.0 0.608764
vn 0.923879 0.0 0.382684
vn 0.923879 0.0 0.382684
vn 0.991445 0.0 0.130526
vn 0.991445 0.0 0.130526
vn -1.0 -0.0 0.0
vn -1.0 0.0 0.0
vn 0.0 1.0 0.0
vn 0.0 1.0 0.0
vn 0.0 1.0 0.0
vn 0.0 1.0 0.0
vn 0.0 1.0 0.0
vn 0.0 1.0 0.0
vn 0.0 1.0 0.0
vn 0.0 1.0 0.0
vn 0.0 1.0 0.0
vn 0.0 1.0 0.0
vn 0.0 1.0 0.0
vn 0.0 1.0 0.0
vn 0.0 1.0 -0.0
vn 0.0 1.0 0.0
vn -0.130528 0.0 0.991445
vn -0.130528 0.0 0.991445
vn -0.38268 0.0 0.923881
vn -0.38268 0.0 0.923881
vn -0.608765 0.0 0.793351
vn -0.608765 0.0 0.793351
vn -0.793351 0.0 0.608764
vn -0.793351 0.0 0.608764
vn -0.923879 0.0 0.382684
vn -0.923879 0.0 0.382684
vn -0.991445 0.0 0.130526
vn -0.991445 0.0 0.130526
vn 0.0 0.0 -1.0
vn 0.0 0.0 -1.0
vn 0.0 -1.0 0.0
vn 0.0 -1.0 -0.0
vn 0.0 -1.0 -0.0
vn 0.0 -1.0 -0.0
vn 0.0 -1.0 -0.0
vn 0.0 -1.0 0.0
vn 0.0 -1.0 0.0
vn 0.0 -1.0 0.0
vn 0.0 -1.0 0.0
vn 0.0 -1.0 0.0
vn 0.0 -1.0 0.0
vn 0.0 -1.0 0.0
vn 0.0 -1.0 0.0
vn 0.0 -1.0 0.0
vn 1.0 -0.0 0.0
vn 1.0 0.0 0.0
vn 0.130529 0.0 0.991445
vn 0.130529 0.0 0.991445
vn 0.382679 0.0 0.923881
vn 0.382679 0.0 0.923881
vn 0.608766 0.0 0.79335
vn 0.608766 0.0 0.79335
vn 0.793352 0.0 0.608763
vn 0.793352 0.0 0.608763
vn 0.923878 0.0 0.382687
vn 0.923878 0.0 0.382687
vn 0.991445 0.0 0.130525
vn 0.991445 0.0 0.130525
vn 0.0 0.0 1.0
vn 0.0 0.0 1.0
vn -1.0 -0.0 0.0
vn -1.0 0.0 0.0
vn 0.0 1.0 0.0
vn 0.0 1.0 0.0
vn 0.0 1.0 0.0
vn 0.0 1.0 0.0
vn 0.0 1.0 0.0
vn 0.0 1.0 0.0
vn 0.0 1.0 0.0
vn 0.0 1.0 0.0
vn 0.0 1.0 0.0
vn 0.0 1.0 0.0
vn 0.0 1.0 0.0
vn 0.0 1.0 0.0
vn 0.0 1.0 -0.0
vn 0.0 1.0 0.0
vn -0.130528 0.0 0.991445
vn -0.130528 0.0 0.991445
vn -0.38268 0.0 0.923881
vn -0.38268 0.0 0.923881
vn -0.608765 0.0 0.793351
vn -0.608765 0.0 0.793351
vn -0.793351 0.0 0.608764
vn -0.793351 0.0 0.608764
vn -0.923879 0.0 0.382684
vn -0.923879 0.0 0.382684
vn -0.991445 0.0 0.130526
vn -0.991445 0.0 0.130526
vn 0.0 0.0 -1.0
vn 0.0 0.0 -1.0
vn 0.0 -1.0 0.0
vn 0.0 -1.0 -0.0
vn 0.0 -1.0 -0.0
vn 0.0 -1.0 -0.0
vn 0.0 -1.0 -0.0
vn 0.0 -1.0 0.0
vn 0.0 -1.0 0.0
vn 0.0 -1.0 0.0
vn 0.0 -1.0 0.0
vn 0.0 -1.0 0.0
vn 0.0 -1.0 0.0
vn 0.0 -1.0 0.0
vn 0.0 -1.0 0.0
vn 0.0 -1.0 0.0
vn 1.0 -0.0 0.0
vn 1.0 0.0 0.0
vn 0.130529 0.0 0.991445
vn 0.130529 0.0 0.991445
vn 0.382679 0.0 0.923881
vn 0.382679 0.0 0.923881
vn 0.608766 0.0 0.79335
vn 0.608766 0.0 0.79335
vn 0.793352 0.0 0.608763
vn 0.793352 0.0 0.608763
vn 0.923878 0.0 0.382687
vn 0.923878 0.0 0.382687
vn 0.991445 0.0 0.130525
vn 0.991445 0.0 0.130525
vn 0.0 0.0 1.0
vn 0.0 0.0 1.0
vn -1.0 -0.0 0.0
vn -1.0 0.0 0.0
vn 0.0 1.0 0.0
vn 0.0 1.0 0.0
vn 0.0 1.0 0.0
vn 0.0 1.0 0.0
vn 0.0 1.0 0.0
vn 0.0 1.0 0.0
vn 0.0 1.0 0.0
vn 0.0 1.0 0.0
vn 0.0 1.0 0.0
vn 0.0 1.0 0.0
vn 0.0 1.0 0.0
vn 0.0 1.0 0.0
vn 0.0 1.0 -0.0
vn 0.0 1.0 0.0
vn -0.130528 0.0 0.991445
vn -0.130528 0.0 0.991445
vn -0.38268 0.0 0.923881
vn -0.38268 0.0 0.923881
vn -0.608768 0.0 0.793349
vn -0.608768 0.0 0.793349
vn -0.793349 0.0 0.608768
vn -0.793349 0.0 0.608768
vn -0.923881 0.0 0.38268
vn -0.923881 0.0 0.38268
vn -0.991445 0.0 0.130528
vn -0.991445 0.0 0.130528
vn 0.0 0.0 -1.0
vn 0.0 0.0 -1.0
vn 0.0 -1.0 0.0
vn 0.0 -1.0 -0.0
vn 0.0 -1.0 -0.0
vn 0.0 -1.0 -0.0
vn 0.0 -1.0 -0.0
vn 0.0 -1.0 0.0
vn 0.0 -1.0 0.0
vn 0.0 -1.0 0.0
vn 0.0 -1.0 0.0
vn 0.0 -1.0 0.0
vn 0.0 -1.0 0.0
vn 0.0 -1.0 0.0
vn 0.0 -1.0 0.0
vn 0.0 -1.0 0.0
vn 1.0 -0.0 0.0
vn 1.0 0.0 0.0
vn 0.130528 0.0 0.991445
vn 0.130528 0.0 0.991445
vn 0.38268 0.0 0.923881
vn 0.38268 0.0 0.923881
vn 0.608764 0.0 0.793351
vn 0.608764 0.0 0.793351
vn 0.793352 0.0 0.608763
vn 0.793352 0.0 0.608763
vn 0.923878 0.0 0.382687
vn 0.923878 0.0 0.382687
vn 0.991446 0.0 0.130521
vn 0.991446 0.0 0.130521
vn 0.0 0.0 1.0
vn 0.0 0.0 1.0
vn -1.0 -0.0 0.0
vn -1.0 0.0 0.0
vn 0.0 1.0 0.0
vn 0.0 1.0 0.0
vn 0.0 1.0 0.0
vn 0.0 1.0 0.0
vn 0.0 1.0 0.0
vn 0.0 1.0 0.0
vn 0.0 1.0 0.0
vn 0.0 1.0 0.0
vn 0.0 1.0 0.0
vn 0.0 1.0 0.0
vn 0.0 1.0 0.0
vn 0.0 1.0 0.0
vn 0.0 1.0 -0.0
vn 0.0 1.0 0.0
vn -0.130528 0.0 0.991445
vn -0.130528 0.0 0.991445
vn -0.38268 0.0 0.923881
vn -0.38268 0.0 0.923881
vn -0.608768 0.0 0.793349
vn -0.608768 0.0 0.793349
vn -0.793349 0.0 0.608768
vn -0.793349 0.0 0.608768
vn -0.923881 0.0 0.38268
vn -0.923881 0.0 0.38268
vn -0.991445 0.0 0.130528
vn -0.991445 0.0 0.130528
vn 0.0 0.0 -1.0
vn 0.0 0.0 -1.0
vn 0.0 -1.0 0.0
vn 0.0 -1.0 -0.0
vn 0.0 -1.0 -0.0
vn 0.0 -1.0 -0.0
vn 0.0 -1.0 -0.0
vn 0.0 -1.0 0.0
vn 0.0 -1.0 0.0
vn 0.0 -1.0 0.0
vn 0.0 -1.0 0.0
vn 0.0 -1.0 0.0
vn 0.0 -1.0 0.0
vn 0.0 -1.0 0.0
vn 0.0 -1.0 0.0
vn 0.0 -1.0 0.0
vn 1.0 -0.0 0.0
vn 1.0 0.0 0.0
vn 0.130528 0.0 0.991445
vn 0.130528 0.0 0.991445
vn 0.38268 0.0 0.923881
vn 0.38268 0.0 0.923881
vn 0.608764 0.0 0.793351
vn 0.608764 0.0 0.793351
vn 0.793352 0.0 0.608763
vn 0.793352 0.0 0.608763
vn 0.923878 0.0 0.382687
vn 0.923878 0.0 0.382687
vn 0.991445 0.0 0.130521
vn 0.991445 0.0 0.130521
vn 0.0 0.0 1.0
vn 0.0 0.0 1.0
vn 1.0 0.0 -0.0
vn 1.0 0.0 0.0
vn 1.0 0.0 0.0
vn 0.0 1.0 0.0
vn 0.0 1.0 0.0
vn 0.0 1.0 0.0
vn 0.0 1.0 0.0
vn 0.0 1.0 0.0
vn 0.0 1.0 0.0
vn 0.0 -0.0 -1.0
vn 0.0 0.0 -1.0
vn -0.0 0.0 -1.0
vn 0.0 -1.0 0.0
vn -0.0 -1.0 0.0
vn 0.0 -1.0 0.0
vn 0.0 -1.0 0.0
vn 0.0 -1.0 0.0
vn -0.0 -1.0 0.0
vn 0.0 -0.0 1.0
vn 0.0 0.0 1.0
vn 0.0 0.0 1.0
vn 0.0 1.0 0.0
vn 0.0 1.0 0.0
vn 0.0 1.0 0.0
vn 0.0 1.0 0.0
vn 0.0 1.0 0.0
vn 0.0 1.0 0.0
vn 0.0 -0.0 -1.0
vn 0.0 0.0 -1.0
vn -0.0 0.0 -1.0
vn 0.0 -1.0 0.0
vn -0.0 -1.0 0.0
vn 0.0 -1.0 0.0
vn 0.0 -1.0 0.0
vn 0.0 -1.0 0.0
vn -0.0 -1.0 0.0
vn 0.0 -0.0 1.0
vn 0.0 0.0 1.0
vn 0.0 0.0 1.0
vn 0.0 1.0 0.0
vn 0.0 1.0 0.0
vn 0.0 1.0 0.0
vn -0.0 0.0 -1.0
vn 0.0 -0.0 -1.0
vn 0.0 -0.0 1.0
vn 0.0 0.0 1.0
vn 0.0 0.0 1.0
f 1//1 2//1 3//1 
f 4//2 2//2 1//2 
f 5//3 6//3 7//3 
f 8//4 9//4 10//4 
f 10//5 9//5 11//5 
f 11//6 9//6 5//6 
f 5//7 9//7 6//7 
f 12//8 13//8 14//8 
f 15//9 13//9 12//9 
f 13//10 16//10 17//10 
f 6//11 1//11 15//11 
f 9//12 1//12 6//12 
f 15//13 1//13 13//13 
f 13//14 1//14 16//14 
f 18//15 4//15 9//15 
f 9//16 4//16 1//16 
f 19//17 15//17 12//17 
f 19//18 20//18 15//18 
f 21//19 12//19 14//19 
f 21//20 19//20 12//20 
f 22//21 14//21 13//21 
f 22//22 21//22 14//22 
f 23//23 13//23 17//23 
f 23//24 22//24 13//24 
f 24//25 17//25 16//25 
f 24//26 23//26 17//26 
f 3//27 16//27 1//27 
f 3//28 24//28 16//28 
f 2//29 18//29 25//29 
f 4//30 18//30 2//30 
f 21//31 20//31 19//31 
f 24//32 3//32 23//32 
f 23//33 3//33 22//33 
f 22//34 3//34 21//34 
f 21//35 3//35 20//35 
f 26//36 27//36 28//36 
f 29//37 30//37 31//37 
f 20//38 32//38 26//38 
f 27//39 32//39 29//39 
f 3//40 32//40 20//40 
f 26//41 32//41 27//41 
f 29//42 32//42 30//42 
f 2//43 25//43 3//43 
f 3//44 25//44 32//44 
f 32//45 18//45 9//45 
f 25//46 18//46 32//46 
f 7//47 26//47 28//47 
f 7//48 6//48 26//48 
f 5//49 28//49 27//49 
f 5//50 7//50 28//50 
f 11//51 27//51 29//51 
f 11//52 5//52 27//52 
f 10//53 29//53 31//53 
f 10//54 11//54 29//54 
f 8//55 31//55 30//55 
f 8//56 10//56 31//56 
f 9//57 30//57 32//57 
f 9//58 8//58 30//58 
f 6//59 20//59 26//59 
f 6//60 15//60 20//60 
f 33//61 34//61 35//61 
f 36//62 34//62 33//62 
f 37//63 38//63 39//63 
f 40//64 41//64 42//64 
f 42//65 41//65 43//65 
f 43//66 41//66 37//66 
f 37//67 41//67 38//67 
f 44//68 45//68 46//68 
f 47//69 45//69 44//69 
f 45//70 48//70 49//70 
f 38//71 33//71 47//71 
f 41//72 33//72 38//72 
f 47//73 33//73 45//73 
f 45//74 33//74 48//74 
f 50//75 36//75 41//75 
f 41//76 36//76 33//76 
f 51//77 47//77 44//77 
f 51//78 52//78 47//78 
f 53//79 44//79 46//79 
f 53//80 51//80 44//80 
f 54//81 46//81 45//81 
f 54//82 53//82 46//82 
f 55//83 45//83 49//83 
f 55//84 54//84 45//84 
f 56//85 49//85 48//85 
f 56//86 55//86 49//86 
f 35//87 48//87 33//87 
f 35//88 56//88 48//88 
f 34//89 50//89 57//89 
f 36//90 50//90 34//90 
f 53//91 52//91 51//91 
f 56//92 35//92 55//92 
f 55//93 35//93 54//93 
f 54//94 35//94 53//94 
f 53//95 35//95 52//95 
f 58//96 59//96 60//96 
f 61//97 62//97 63//97 
f 52//98 64//98 58//98 
f 59//99 64//99 61//99 
f 35//100 64//100 52//100 
f 58//101 64//101 59//101 
f 61//102 64//102 62//102 
f 34//103 57//103 35//103 
f 35//104 57//104 64//104 
f 64//105 50//105 41//105 
f 57//106 50//106 64//106 
f 39//107 58//107 60//107 
f 39//108 38//108 58//108 
f 37//109 60//109 59//109 
f 37//110 39//110 60//110 
f 43//111 59//111 61//111 
f 43//112 37//112 59//112 
f 42//113 61//113 63//113 
f 42//114 43//114 61//114 
f 40//115 63//115 62//115 
f 40//116 42//116 63//116 
f 41//117 62//117 64//117 
f 41//118 40//118 62//118 
f 38//119 52//119 58//119 
f 38//120 47//120 52//120 
f 65//121 66//121 67//121 
f 68//122 69//122 70//122 
f 70//123 69//123 71//123 
f 71//124 69//124 65//124 
f 65//125 69//125 66//125 
f 74//126 75//126 76//126 
f 78//127 77//127 79//127 
f 80//128 77//128 78//128 
f 75//129 77//129 80//129 
f 74//130 77//130 75//130 
f 77//131 72//131 69//131 
f 73//132 72//132 77//132 
f 67//133 74//133 76//133 
f 67//134 66//134 74//134 
f 65//135 76//135 75//135 
f 65//136 67//136 76//136 
f 71//137 75//137 80//137 
f 71//138 65//138 75//138 
f 70//139 80//139 78//139 
f 70//140 71//140 80//140 
f 68//141 78//141 79//141 
f 68//142 70//142 78//142 
f 69//143 79//143 77//143 
f 69//144 68//144 79//144 
f 81//145 82//145 83//145 
f 84//146 85//146 86//146 
f 86//147 85//147 87//147 
f 87//148 85//148 81//148 
f 81//149 85//149 82//149 
f 90//150 91//150 92//150 
f 94//151 93//151 95//151 
f 96//152 93//152 94//152 
f 91//153 93//153 96//153 
f 90//154 93//154 91//154 
f 93//155 88//155 85//155 
f 89//156 88//156 93//156 
f 83//157 90//157 92//157 
f 83//158 82//158 90//158 
f 81//159 92//159 91//159 
f 81//160 83//160 92//160 
f 87//161 91//161 96//161 
f 87//162 81//162 91//162 
f 86//163 96//163 94//163 
f 86//164 87//164 96//164 
f 84//165 94//165 95//165 
f 84//166 86//166 94//166 
f 85//167 95//167 93//167 
f 85//168 84//168 95//168 
f 97//169 98//169 99//169 
f 100//170 98//170 97//170 
f 101//171 102//171 103//171 
f 104//172 105//172 106//172 
f 106//173 105//173 107//173 
f 107//174 105//174 101//174 
f 101//175 105//175 102//175 
f 108//176 109//176 110//176 
f 111//177 112//177 113//177 
f 102//178 97//178 108//178 
f 109//179 97//179 111//179 
f 105//180 97//180 102//180 
f 108//181 97//181 109//181 
f 111//182 97//182 112//182 
f 114//183 100//183 105//183 
f 105//184 100//184 97//184 
f 115//185 108//185 110//185 
f 115//186 116//186 108//186 
f 117//187 110//187 109//187 
f 117//188 115//188 110//188 
f 118//189 109//189 111//189 
f 118//190 117//190 109//190 
f 119//191 111//191 113//191 
f 119//192 118//192 111//192 
f 120//193 113//193 112//193 
f 120//194 119//194 113//194 
f 99//195 112//195 97//195 
f 99//196 120//196 112//196 
f 98//197 114//197 121//197 
f 100//198 114//198 98//198 
f 117//199 116//199 115//199 
f 120//200 99//200 119//200 
f 119//201 99//201 118//201 
f 118//202 99//202 117//202 
f 117//203 99//203 116//203 
f 122//204 123//204 124//204 
f 116//205 125//205 122//205 
f 126//206 125//206 127//206 
f 128//207 125//207 126//207 
f 123//208 125//208 128//208 
f 99//209 125//209 116//209 
f 122//210 125//210 123//210 
f 98//211 121//211 99//211 
f 99//212 121//212 125//212 
f 125//213 114//213 105//213 
f 121//214 114//214 125//214 
f 103//215 122//215 124//215 
f 103//216 102//216 122//216 
f 101//217 124//217 123//217 
f 101//218 103//218 124//218 
f 107//219 123//219 128//219 
f 107//220 101//220 123//220 
f 106//221 128//221 126//221 
f 106//222 107//222 128//222 
f 104//223 126//223 127//223 
f 104//224 106//224 126//224 
f 105//225 127//225 125//225 
f 105//226 104//226 127//226 
f 102//227 116//227 122//227 
f 102//228 108//228 116//228 
f 129//229 130//229 131//229 
f 132//230 130//230 129//230 
f 133//231 134//231 135//231 
f 136//232 137//232 138//232 
f 138//233 137//233 139//233 
f 139//234 137//234 133//234 
f 133//235 137//235 134//235 
f 140//236 141//236 142//236 
f 143//237 144//237 145//237 
f 134//238 129//238 140//238 
f 141//239 129//239 143//239 
f 137//240 129//240 134//240 
f 140//241 129//241 141//241 
f 143//242 129//242 144//242 
f 146//243 132//243 137//243 
f 137//244 132//244 129//244 
f 147//245 140//245 142//245 
f 147//246 148//246 140//246 
f 149//247 142//247 141//247 
f 149//248 147//248 142//248 
f 150//249 141//249 143//249 
f 150//250 149//250 141//250 
f 151//251 143//251 145//251 
f 151//252 150//252 143//252 
f 152//253 145//253 144//253 
f 152//254 151//254 145//254 
f 131//255 144//255 129//255 
f 131//256 152//256 144//256 
f 130//257 146//257 153//257 
f 132//258 146//258 130//258 
f 149//259 148//259 147//259 
f 152//260 131//260 151//260 
f 151//261 131//261 150//261 
f 150//262 131//262 149//262 
f 149//263 131//263 148//263 
f 154//264 155//264 156//264 
f 148//265 157//265 154//265 
f 158//266 157//266 159//266 
f 160//267 157//267 158//267 
f 155//268 157//268 160//268 
f 131//269 157//269 148//269 
f 154//270 157//270 155//270 
f 130//271 153//271 131//271 
f 131//272 153//272 157//272 
f 157//273 146//273 137//273 
f 153//274 146//274 157//274 
f 135//275 154//275 156//275 
f 135//276 134//276 154//276 
f 133//277 156//277 155//277 
f 133//278 135//278 156//278 
f 139//279 155//279 160//279 
f 139//280 133//280 155//280 
f 138//281 160//281 158//281 
f 138//282 139//282 160//282 
f 136//283 158//283 159//283 
f 136//284 138//284 158//284 
f 137//285 159//285 157//285 
f 137//286 136//286 159//286 
f 134//287 148//287 154//287 
f 134//288 140//288 148//288 
f 161//289 162//289 163//289 
f 164//290 162//290 161//290 
f 165//291 166//291 167//291 
f 168//292 169//292 170//292 
f 170//293 169//293 171//293 
f 171//294 169//294 165//294 
f 165//295 169//295 166//295 
f 172//296 173//296 174//296 
f 175//297 176//297 177//297 
f 166//298 161//298 172//298 
f 173//299 161//299 175//299 
f 169//300 161//300 166//300 
f 172//301 161//301 173//301 
f 175//302 161//302 176//302 
f 178//303 164//303 169//303 
f 169//304 164//304 161//304 
f 179//305 172//305 174//305 
f 179//306 180//306 172//306 
f 181//307 174//307 173//307 
f 181//308 179//308 174//308 
f 182//309 173//309 175//309 
f 182//310 181//310 173//310 
f 183//311 175//311 177//311 
f 183//312 182//312 175//312 
f 184//313 177//313 176//313 
f 184//314 183//314 177//314 
f 163//315 176//315 161//315 
f 163//316 184//316 176//316 
f 162//317 178//317 185//317 
f 164//318 178//318 162//318 
f 181//319 180//319 179//319 
f 184//320 163//320 183//320 
f 183//321 163//321 182//321 
f 182//322 163//322 181//322 
f 181//323 163//323 180//323 
f 186//324 187//324 188//324 
f 180//325 189//325 186//325 
f 190//326 189//326 191//326 
f 192//327 189//327 190//327 
f 187//328 189//328 192//328 
f 163//329 189//329 180//329 
f 186//330 189//330 187//330 
f 162//331 185//331 163//331 
f 163//332 185//332 189//332 
f 189//333 178//333 169//333 
f 185//334 178//334 189//334 
f 167//335 186//335 188//335 
f 167//336 166//336 186//336 
f 165//337 188//337 187//337 
f 165//338 167//338 188//338 
f 171//339 187//339 192//339 
f 171//340 165//340 187//340 
f 170//341 192//341 190//341 
f 170//342 171//342 192//342 
f 168//343 190//343 191//343 
f 168//344 170//344 190//344 
f 169//345 191//345 189//345 
f 169//346 168//346 191//346 
f 166//347 180//347 186//347 
f 166//348 172//348 180//348 
f 193//349 194//349 195//349 
f 196//350 194//350 193//350 
f 197//351 198//351 199//351 
f 200//352 201//352 202//352 
f 202//353 201//353 203//353 
f 203//354 201//354 197//354 
f 197//355 201//355 198//355 
f 204//356 205//356 206//356 
f 207//357 208//357 209//357 
f 198//358 193//358 204//358 
f 205//359 193//359 207//359 
f 201//360 193//360 198//360 
f 204//361 193//361 205//361 
f 207//362 193//362 208//362 
f 210//363 196//363 201//363 
f 201//364 196//364 193//364 
f 211//365 204//365 206//365 
f 211//366 212//366 204//366 
f 213//367 206//367 205//367 
f 213//368 211//368 206//368 
f 214//369 205//369 207//369 
f 214//370 213//370 205//370 
f 215//371 207//371 209//371 
f 215//372 214//372 207//372 
f 216//373 209//373 208//373 
f 216//374 215//374 209//374 
f 195//375 208//375 193//375 
f 195//376 216//376 208//376 
f 194//377 210//377 217//377 
f 196//378 210//378 194//378 
f 213//379 212//379 211//379 
f 216//380 195//380 215//380 
f 215//381 195//381 214//381 
f 214//382 195//382 213//382 
f 213//383 195//383 212//383 
f 218//384 219//384 220//384 
f 212//385 221//385 218//385 
f 222//386 221//386 223//386 
f 224//387 221//387 222//387 
f 219//388 221//388 224//388 
f 195//389 221//389 212//389 
f 218//390 221//390 219//390 
f 194//391 217//391 195//391 
f 195//392 217//392 221//392 
f 221//393 210//393 201//393 
f 217//394 210//394 221//394 
f 199//395 218//395 220//395 
f 199//396 198//396 218//396 
f 197//397 220//397 219//397 
f 197//398 199//398 220//398 
f 203//399 219//399 224//399 
f 203//400 197//400 219//400 
f 202//401 224//401 222//401 
f 202//402 203//402 224//402 
f 200//403 222//403 223//403 
f 200//404 202//404 222//404 
f 201//405 223//405 221//405 
f 201//406 200//406 223//406 
f 198//407 212//407 218//407 
f 198//408 204//408 212//408 
f 225//409 226//409 227//409 
f 226//410 228//410 227//410 
f 225//411 227//411 229//411 
f 230//412 231//412 232//412 
f 230//413 233//413 231//413 
f 233//414 234//414 231//414 
f 233//415 235//415 236//415 
f 235//416 237//416 236//416 
f 233//417 236//417 234//417 
f 235//418 238//418 239//418 
f 238//419 240//419 239//419 
f 235//420 239//420 237//420 
f 241//421 242//421 243//421 
f 242//422 244//422 243//422 
f 241//423 243//423 245//423 
f 238//424 246//424 240//424 
f 238//425 241//425 246//425 
f 241//426 245//426 246//426 
f 242//427 230//427 244//427 
f 230//428 247//428 244//428 
f 230//429 232//429 247//429 
f 248//430 249//430 250//430 
f 248//431 251//431 249//431 
f 251//432 252//432 249//432 
f 251//433 253//433 254//433 
f 253//434 255//434 254//434 
f 251//435 254//435 252//435 
f 253//436 256//436 257//436 
f 256//437 258//437 257//437 
f 253//438 257//438 255//438 
f 259//439 260//439 261//439 
f 260//440 262//440 261//440 
f 259//441 261//441 263//441 
f 256//442 264//442 258//442 
f 256//443 259//443 264//443 
f 259//444 263//444 264//444 
f 260//445 248//445 262//445 
f 248//446 265//446 262//446 
f 248//447 250//447 265//447 
f 266//448 267//448 237//448 
f 266//449 268//449 267//449 
f 268//450 269//450 267//450 
f 268//451 270//451 269//451 
f 268//452 271//452 270//452 
f 272//453 266//453 273//453 
f 266//454 237//454 273//454 
f 272//455 273//455 274//455 
