# Wavefront OBJ file written 2026-09-08T01:39:34
o CAD_edgeMesh

# points : 257
# lines  : 280

# <points count="257">
v -7 -3.15 1
v -7 -0.7 1
v -6.3 -0.7 1
v -6.3 -3.15 1
v -7 -7 1
v -7 -4.55 1
v -6.3 -4.55 1
v -6.3 -7 1
v -4.7 -3.15 1
v -4.7 -0.7 1
v -4.1 -0.7 1
v -4.1 -3.15 1
v -4.7 -7 1
v -4.7 -4.55 1
v -4.1 -4.55 1
v -4.1 -7 1
v -2.5 -3.15 1
v -2.5 -0.7 1
v -1.9 -0.7 1
v -1.9 -3.15 1
v -2.5 -7 1
v -2.5 -4.55 1
v -1.9 -4.55 1
v -1.9 -7 1
v -0.3 -3.15 1
v -0.3 -0.7 1
v -0.3 -7 1
v -0.3 -4.55 1
v -7 -7 0
v -7 0 1
v -7 0 0
v 0 0 0
v 0 -0.7 5.4
v 0 -0.7 1
v 0 -3.15 1
v 0 -3.15 5.4
v 0 -4.55 5.4
v 0 -4.55 1
v 0 -7 1
v 0 -7 5.4
v 0 -7 0
v 0 0 1
v -7 0 0.5
v 0 -0.7 5.36429
v 0 -0.7 5.15
v 0 -0.7 3.075
v 0 -1.925 1
v 0 -3.15 5.36429
v 0 -3.15 5.15
v 0 -3.15 3.075
v 0 -1.925 5.4
v 0 -4.55 5.36429
v 0 -4.55 5.15
v 0 -4.55 3.075
v 0 -5.775 1
v 0 -7 5.36429
v 0 -7 5.15
v 0 -7 3.075
v 0 -5.775 5.4
v 0 -7 0.5
v 0 -3.5 1
v -7 -3.15 5.15
v -7 -0.7 5.15
v -6.55 -0.7 5.4
v -6.4853 -0.7 5.39148
v -6.425 -0.7 5.36651
v -6.33349 -0.7 5.275
v -6.30852 -0.7 5.2147
v -6.3 -0.7 5.15
v -6.37322 -0.7 5.32678
v -6.875 -0.7 5.36651
v -6.8147 -0.7 5.39148
v -6.92678 -0.7 5.32678
v -6.75 -0.7 5.4
v -6.96651 -0.7 5.275
v -6.99148 -0.7 5.2147
v -6.8147 -3.15 5.39148
v -6.75 -3.15 5.4
v -6.875 -3.15 5.36651
v -6.92678 -3.15 5.32678
v -6.96651 -3.15 5.275
v -6.99148 -3.15 5.2147
v -6.4853 -3.15 5.39148
v -6.55 -3.15 5.4
v -6.425 -3.15 5.36651
v -6.33349 -3.15 5.275
v -6.37322 -3.15 5.32678
v -6.30852 -3.15 5.2147
v -6.3 -3.15 5.15
v -7 -7 5.15
v -7 -4.55 5.15
v -6.55 -4.55 5.4
v -6.4853 -4.55 5.39148
v -6.425 -4.55 5.36651
v -6.33349 -4.55 5.275
v -6.30852 -4.55 5.2147
v -6.3 -4.55 5.15
v -6.37322 -4.55 5.32678
v -6.875 -4.55 5.36651
v -6.8147 -4.55 5.39148
v -6.92678 -4.55 5.32678
v -6.75 -4.55 5.4
v -6.96651 -4.55 5.275
v -6.99148 -4.55 5.2147
v -6.8147 -7 5.39148
v -6.75 -7 5.4
v -6.875 -7 5.36651
v -6.92678 -7 5.32678
v -6.96651 -7 5.275
v -6.99148 -7 5.2147
v -6.4853 -7 5.39148
v -6.55 -7 5.4
v -6.425 -7 5.36651
v -6.33349 -7 5.275
v -6.37322 -7 5.32678
v -6.30852 -7 5.2147
v -6.3 -7 5.15
v -4.7 -3.15 5.15
v -4.7 -0.7 5.15
v -4.35 -0.7 5.4
v -4.2853 -0.7 5.39148
v -4.225 -0.7 5.36651
v -4.13349 -0.7 5.275
v -4.10852 -0.7 5.2147
v -4.1 -0.7 5.15
v -4.17322 -0.7 5.32678
v -4.5147 -0.7 5.39148
v -4.45 -0.7 5.4
v -4.575 -0.7 5.36651
v -4.66651 -0.7 5.275
v -4.62678 -0.7 5.32678
v -4.69148 -0.7 5.2147
v -4.5147 -3.15 5.39148
v -4.45 -3.15 5.4
v -4.575 -3.15 5.36651
v -4.62678 -3.15 5.32678
v -4.66651 -3.15 5.275
v -4.69148 -3.15 5.2147
v -4.2853 -3.15 5.39148
v -4.35 -3.15 5.4
v -4.225 -3.15 5.36651
v -4.10852 -3.15 5.2147
v -4.13349 -3.15 5.275
v -4.1 -3.15 5.15
v -4.17322 -3.15 5.32678
v -4.7 -7 5.15
v -4.7 -4.55 5.15
v -4.35 -4.55 5.4
v -4.2853 -4.55 5.39148
v -4.225 -4.55 5.36651
v -4.13349 -4.55 5.275
v -4.10852 -4.55 5.2147
v -4.1 -4.55 5.15
v -4.17322 -4.55 5.32678
v -4.5147 -4.55 5.39148
v -4.45 -4.55 5.4
v -4.575 -4.55 5.36651
v -4.66651 -4.55 5.275
v -4.62678 -4.55 5.32678
v -4.69148 -4.55 5.2147
v -4.5147 -7 5.39148
v -4.45 -7 5.4
v -4.575 -7 5.36651
v -4.62678 -7 5.32678
v -4.66651 -7 5.275
v -4.69148 -7 5.2147
v -4.2853 -7 5.39148
v -4.35 -7 5.4
v -4.225 -7 5.36651
v -4.10852 -7 5.2147
v -4.13349 -7 5.275
v -4.1 -7 5.15
v -4.17322 -7 5.32678
v -2.5 -3.15 5.15
v -2.5 -0.7 5.15
v -2.15 -0.7 5.4
v -2.0853 -0.7 5.39148
v -2.025 -0.7 5.36651
v -1.93349 -0.7 5.275
v -1.90852 -0.7 5.2147
v -1.9 -0.7 5.15
v -1.97322 -0.7 5.32678
v -2.3147 -0.7 5.39148
v -2.25 -0.7 5.4
v -2.375 -0.7 5.36651
v -2.46651 -0.7 5.275
v -2.42678 -0.7 5.32678
v -2.49148 -0.7 5.2147
v -2.3147 -3.15 5.39148
v -2.25 -3.15 5.4
v -2.375 -3.15 5.36651
v -2.42678 -3.15 5.32678
v -2.46651 -3.15 5.275
v -2.49148 -3.15 5.2147
v -2.0853 -3.15 5.39148
v -2.15 -3.15 5.4
v -2.025 -3.15 5.36651
v -1.90852 -3.15 5.2147
v -1.93349 -3.15 5.275
v -1.9 -3.15 5.15
v -1.97322 -3.15 5.32678
v -2.5 -7 5.15
v -2.5 -4.55 5.15
v -2.15 -4.55 5.4
v -2.0853 -4.55 5.39148
v -2.025 -4.55 5.36651
v -1.93349 -4.55 5.275
v -1.90852 -4.55 5.2147
v -1.9 -4.55 5.15
v -1.97322 -4.55 5.32678
v -2.3147 -4.55 5.39148
v -2.25 -4.55 5.4
v -2.375 -4.55 5.36651
v -2.46651 -4.55 5.275
v -2.42678 -4.55 5.32678
v -2.49148 -4.55 5.2147
v -2.3147 -7 5.39148
v -2.25 -7 5.4
v -2.375 -7 5.36651
v -2.42678 -7 5.32678
v -2.46651 -7 5.275
v -2.49148 -7 5.2147
v -2.0853 -7 5.39148
v -2.15 -7 5.4
v -2.025 -7 5.36651
v -1.90852 -7 5.2147
v -1.93349 -7 5.275
v -1.9 -7 5.15
v -1.97322 -7 5.32678
v -0.3 -3.15 5.15
v -0.3 -0.7 5.15
v -0.114705 -0.7 5.39148
v -0.05 -0.7 5.4
v -0.175 -0.7 5.36651
v -0.266506 -0.7 5.275
v -0.226777 -0.7 5.32678
v -0.291481 -0.7 5.2147
v -0.114705 -3.15 5.39148
v -0.05 -3.15 5.4
v -0.175 -3.15 5.36651
v -0.226777 -3.15 5.32678
v -0.266506 -3.15 5.275
v -0.291481 -3.15 5.2147
v -0.3 -7 5.15
v -0.3 -4.55 5.15
v -0.114705 -4.55 5.39148
v -0.05 -4.55 5.4
v -0.175 -4.55 5.36651
v -0.266506 -4.55 5.275
v -0.226777 -4.55 5.32678
v -0.291481 -4.55 5.2147
v -0.114705 -7 5.39148
v -0.05 -7 5.4
v -0.175 -7 5.36651
v -0.226777 -7 5.32678
v -0.266506 -7 5.275
v -0.291481 -7 5.2147
# </points>

# <edges count="280">
l 1 62
l 63 2
l 2 1
l 64 65
l 65 66
l 67 68
l 68 69
l 70 67
l 66 70
l 71 72
l 73 71
l 72 74
l 75 73
l 76 75
l 74 64
l 63 76
l 3 2
l 69 3
l 77 78
l 79 77
l 80 79
l 81 80
l 82 81
l 62 82
l 4 1
l 3 4
l 83 84
l 85 83
l 86 87
l 88 86
l 84 78
l 87 85
l 89 88
l 4 89
l 5 90
l 91 6
l 6 5
l 92 93
l 93 94
l 95 96
l 96 97
l 98 95
l 94 98
l 99 100
l 101 99
l 100 102
l 103 101
l 104 103
l 102 92
l 91 104
l 7 6
l 97 7
l 105 106
l 107 105
l 108 107
l 109 108
l 110 109
l 90 110
l 8 5
l 7 8
l 111 112
l 113 111
l 114 115
l 116 114
l 112 106
l 115 113
l 117 116
l 8 117
l 9 118
l 119 10
l 10 9
l 120 121
l 121 122
l 123 124
l 124 125
l 126 123
l 122 126
l 127 128
l 129 127
l 130 131
l 132 130
l 128 120
l 131 129
l 119 132
l 11 10
l 125 11
l 133 134
l 135 133
l 136 135
l 137 136
l 138 137
l 118 138
l 12 9
l 11 12
l 139 140
l 141 139
l 140 134
l 142 143
l 144 142
l 143 145
l 145 141
l 12 144
l 13 146
l 147 14
l 14 13
l 148 149
l 149 150
l 151 152
l 152 153
l 154 151
l 150 154
l 155 156
l 157 155
l 158 159
l 160 158
l 156 148
l 159 157
l 147 160
l 15 14
l 153 15
l 161 162
l 163 161
l 164 163
l 165 164
l 166 165
l 146 166
l 16 13
l 15 16
l 167 168
l 169 167
l 168 162
l 170 171
l 172 170
l 171 173
l 173 169
l 16 172
l 17 174
l 175 18
l 18 17
l 176 177
l 177 178
l 179 180
l 180 181
l 182 179
l 178 182
l 183 184
l 185 183
l 186 187
l 188 186
l 184 176
l 187 185
l 175 188
l 19 18
l 181 19
l 189 190
l 191 189
l 192 191
l 193 192
l 194 193
l 174 194
l 20 17
l 19 20
l 195 196
l 197 195
l 196 190
l 198 199
l 200 198
l 199 201
l 201 197
l 20 200
l 21 202
l 203 22
l 22 21
l 204 205
l 205 206
l 207 208
l 208 209
l 210 207
l 206 210
l 211 212
l 213 211
l 214 215
l 216 214
l 212 204
l 215 213
l 203 216
l 23 22
l 209 23
l 217 218
l 219 217
l 220 219
l 221 220
l 222 221
l 202 222
l 24 21
l 23 24
l 223 224
l 225 223
l 224 218
l 226 227
l 228 226
l 227 229
l 229 225
l 24 228
l 25 230
l 231 26
l 26 25
l 232 233
l 234 232
l 235 236
l 237 235
l 236 234
l 231 237
l 238 239
l 240 238
l 241 240
l 242 241
l 243 242
l 230 243
l 27 244
l 245 28
l 28 27
l 246 247
l 248 246
l 249 250
l 251 249
l 250 248
l 245 251
l 252 253
l 254 252
l 255 254
l 256 255
l 257 256
l 244 257
l 29 5
l 5 30
l 31 29
l 233 33
l 34 26
l 35 25
l 36 239
l 247 37
l 38 28
l 39 27
l 40 253
l 39 5
l 29 41
l 30 43
l 43 31
l 31 32
l 33 44
l 44 45
l 46 34
l 45 46
l 47 35
l 34 47
l 48 36
l 49 48
l 35 50
l 50 49
l 36 51
l 51 33
l 37 52
l 52 53
l 54 38
l 53 54
l 55 39
l 38 55
l 56 40
l 57 56
l 39 58
l 58 57
l 40 59
l 59 37
l 60 39
l 41 60
l 32 41
l 39 61
l 61 42
l 42 30
# </edges>
